<?xml version="1.0" encoding="UTF-8"?>
<!DOCTYPE svg PUBLIC "-//W3C//DTD SVG 1.1//EN" "http://www.w3.org/Graphics/SVG/1.1/DTD/svg11.dtd">
<svg xmlns="http://www.w3.org/2000/svg" version="1.1" viewBox="0 0 81 81" stroke="none">
	<rect width="100%" height="100%" fill="#ffffff"/>
	<path d="M20,20h7v1h-7z M28,20h1v2h-1z M30,20h2v1h-2z M38,20h3v1h-3z M43,20h3v1h-3z M49,20h1v2h-1z M51,20h2v1h-2z M54,20h7v1h-7z M20,21h1v6h-1z M26,21h1v6h-1z M30,21h1v1h-1z M32,21h1v1h-1z M35,21h3v1h-3z M41,21h2v3h-2z M43,21h1v1h-1z M46,21h1v3h-1z M52,21h1v1h-1z M54,21h1v6h-1z M60,21h1v6h-1z M22,22h3v3h-3z M31,22h1v1h-1z M34,22h1v1h-1z M36,22h1v2h-1z M38,22h1v7h-1z M39,22h1v1h-1z M44,22h2v1h-2z M47,22h2v2h-2z M50,22h1v1h-1z M56,22h3v3h-3z M28,23h1v1h-1z M30,23h1v1h-1z M33,23h1v1h-1z M43,23h1v1h-1z M45,23h1v2h-1z M49,23h1v1h-1z M52,23h1v4h-1z M29,24h1v2h-1z M31,24h1v1h-1z M37,24h1v1h-1z M39,24h2v1h-2z M47,24h1v1h-1z M51,24h1v2h-1z M32,25h4v1h-4z M39,25h1v1h-1z M42,25h1v3h-1z M44,25h1v2h-1z M46,25h1v4h-1z M48,25h1v4h-1z M50,25h1v2h-1z M21,26h5v1h-5z M28,26h1v2h-1z M30,26h1v1h-1z M32,26h1v1h-1z M34,26h1v1h-1z M36,26h1v1h-1z M40,26h1v4h-1z M55,26h5v1h-5z M31,27h1v3h-1z M33,27h1v5h-1z M35,27h1v1h-1z M37,27h1v2h-1z M39,27h1v3h-1z M47,27h1v1h-1z M49,27h1v2h-1z M20,28h1v1h-1z M22,28h1v3h-1z M23,28h1v1h-1z M25,28h3v1h-3z M30,28h1v7h-1z M36,28h1v1h-1z M41,28h1v2h-1z M50,28h2v2h-2z M54,28h1v3h-1z M57,28h1v1h-1z M59,28h1v6h-1z M60,28h1v2h-1z M21,29h1v3h-1z M24,29h1v1h-1z M27,29h3v1h-3z M32,29h1v1h-1z M34,29h1v1h-1z M43,29h1v3h-1z M52,29h2v1h-2z M56,29h1v1h-1z M58,29h1v2h-1z M20,30h1v4h-1z M25,30h3v1h-3z M29,30h1v1h-1z M37,30h2v1h-2z M44,30h1v3h-1z M46,30h1v2h-1z M53,30h1v1h-1z M55,30h1v2h-1z M23,31h1v1h-1z M25,31h1v2h-1z M27,31h2v1h-2z M31,31h1v1h-1z M35,31h2v1h-2z M38,31h1v4h-1z M40,31h1v1h-1z M42,31h1v1h-1z M45,31h1v3h-1z M52,31h1v1h-1z M22,32h1v6h-1z M24,32h1v1h-1z M26,32h1v1h-1z M28,32h1v4h-1z M36,32h2v1h-2z M39,32h1v1h-1z M49,32h1v2h-1z M51,32h1v3h-1z M57,32h2v1h-2z M23,33h1v2h-1z M27,33h1v2h-1z M33,33h2v1h-2z M43,33h1v1h-1z M47,33h2v1h-2z M54,33h1v3h-1z M55,33h1v1h-1z M60,33h1v2h-1z M21,34h1v1h-1z M24,34h1v1h-1z M26,34h1v1h-1z M31,34h1v2h-1z M35,34h2v2h-2z M46,34h1v1h-1z M50,34h1v1h-1z M57,34h1v5h-1z M25,35h1v3h-1z M29,35h1v3h-1z M32,35h2v2h-2z M39,35h3v2h-3z M42,35h1v1h-1z M48,35h1v2h-1z M52,35h1v1h-1z M56,35h1v2h-1z M21,36h1v2h-1z M23,36h1v1h-1z M26,36h1v1h-1z M34,36h1v1h-1z M36,36h1v1h-1z M38,36h1v1h-1z M43,36h1v2h-1z M45,36h1v3h-1z M50,36h1v1h-1z M59,36h1v1h-1z M24,37h1v1h-1z M31,37h1v1h-1z M37,37h1v2h-1z M40,37h1v2h-1z M44,37h1v1h-1z M47,37h1v2h-1z M49,37h1v1h-1z M52,37h2v1h-2z M55,37h1v1h-1z M20,38h1v4h-1z M26,38h3v1h-3z M30,38h1v1h-1z M33,38h1v2h-1z M35,38h1v1h-1z M41,38h1v1h-1z M48,38h1v4h-1z M56,38h1v1h-1z M22,39h1v1h-1z M28,39h1v3h-1z M29,39h1v1h-1z M31,39h1v1h-1z M34,39h1v3h-1z M36,39h1v1h-1z M39,39h1v3h-1z M42,39h3v3h-3z M49,39h3v3h-3z M53,39h1v1h-1z M55,39h1v1h-1z M58,39h2v2h-2z M24,40h1v2h-1z M26,40h2v1h-2z M30,40h1v2h-1z M32,40h1v1h-1z M38,40h1v2h-1z M40,40h1v1h-1z M46,40h1v2h-1z M54,40h1v2h-1z M56,40h1v4h-1z M21,41h1v1h-1z M23,41h1v4h-1z M27,41h1v1h-1z M33,41h1v2h-1z M55,41h1v1h-1z M57,41h1v1h-1z M59,41h2v1h-2z M25,42h1v3h-1z M26,42h1v1h-1z M29,42h1v3h-1z M32,42h1v2h-1z M36,42h1v2h-1z M40,42h1v5h-1z M42,42h2v1h-2z M45,42h1v3h-1z M50,42h1v2h-1z M53,42h1v4h-1z M58,42h2v1h-2z M21,43h2v1h-2z M24,43h1v2h-1z M27,43h1v3h-1z M30,43h2v1h-2z M34,43h1v1h-1z M43,43h2v2h-2z M46,43h2v2h-2z M48,43h1v1h-1z M51,43h1v1h-1z M54,43h2v1h-2z M26,44h1v1h-1z M30,44h1v1h-1z M35,44h1v3h-1z M37,44h1v3h-1z M39,44h1v4h-1z M42,44h1v1h-1z M49,44h1v3h-1z M55,44h1v2h-1z M57,44h1v5h-1z M59,44h1v2h-1z M20,45h2v1h-2z M28,45h1v1h-1z M41,45h1v4h-1z M44,45h1v1h-1z M47,45h2v1h-2z M51,45h2v3h-2z M54,45h1v1h-1z M58,45h1v1h-1z M60,45h1v2h-1z M22,46h2v4h-2z M24,46h3v1h-3z M29,46h1v2h-1z M31,46h1v1h-1z M33,46h1v3h-1z M46,46h1v4h-1z M50,46h1v2h-1z M56,46h1v3h-1z M20,47h1v2h-1z M28,47h1v1h-1z M30,47h1v6h-1z M32,47h1v4h-1z M34,47h1v3h-1z M43,47h1v1h-1z M47,47h1v1h-1z M55,47h1v1h-1z M25,48h1v4h-1z M26,48h2v1h-2z M31,48h1v2h-1z M35,48h1v1h-1z M38,48h1v1h-1z M45,48h1v1h-1z M48,48h1v1h-1z M51,48h1v2h-1z M53,48h1v1h-1z M59,48h1v4h-1z M21,49h1v1h-1z M27,49h1v1h-1z M36,49h1v1h-1z M39,49h1v1h-1z M43,49h2v1h-2z M47,49h1v2h-1z M49,49h1v4h-1z M52,49h1v8h-1z M55,49h1v1h-1z M20,50h1v1h-1z M24,50h1v1h-1z M26,50h1v1h-1z M28,50h2v1h-2z M33,50h1v2h-1z M40,50h1v2h-1z M53,50h2v1h-2z M56,50h1v1h-1z M22,51h1v2h-1z M27,51h1v2h-1z M35,51h1v1h-1z M37,51h2v1h-2z M42,51h3v1h-3z M46,51h1v3h-1z M48,51h1v3h-1z M51,51h1v2h-1z M54,51h1v2h-1z M57,51h2v1h-2z M21,52h1v1h-1z M26,52h1v1h-1z M29,52h1v1h-1z M34,52h1v4h-1z M37,52h1v1h-1z M39,52h1v2h-1z M41,52h1v1h-1z M50,52h1v4h-1z M53,52h1v1h-1z M55,52h2v1h-2z M58,52h1v1h-1z M60,52h1v2h-1z M28,53h1v3h-1z M32,53h2v1h-2z M35,53h1v2h-1z M38,53h1v1h-1z M40,53h1v3h-1z M43,53h1v2h-1z M56,53h1v5h-1z M20,54h7v1h-7z M31,54h1v1h-1z M36,54h2v1h-2z M41,54h2v3h-2z M49,54h1v1h-1z M51,54h1v1h-1z M54,54h1v1h-1z M20,55h1v6h-1z M26,55h1v6h-1z M32,55h1v4h-1z M36,55h1v1h-1z M38,55h1v4h-1z M44,55h2v2h-2z M47,55h1v1h-1z M57,55h1v2h-1z M60,55h1v4h-1z M22,56h3v3h-3z M31,56h1v2h-1z M35,56h1v3h-1z M46,56h1v2h-1z M48,56h1v1h-1z M53,56h3v1h-3z M58,56h1v3h-1z M28,57h3v1h-3z M36,57h2v1h-2z M39,57h2v1h-2z M45,57h1v2h-1z M47,57h1v1h-1z M49,57h2v1h-2z M28,58h1v1h-1z M30,58h1v2h-1z M33,58h2v1h-2z M37,58h1v3h-1z M39,58h1v1h-1z M49,58h1v1h-1z M51,58h1v1h-1z M55,58h1v1h-1z M59,58h1v3h-1z M31,59h1v2h-1z M41,59h3v2h-3z M44,59h1v1h-1z M47,59h2v1h-2z M52,59h2v2h-2z M56,59h2v1h-2z M21,60h5v1h-5z M28,60h2v1h-2z M32,60h2v1h-2z M35,60h1v1h-1z M45,60h2v1h-2z M50,60h2v1h-2z M54,60h1v1h-1z" fill="#000000"/>
</svg>
