<?xml version="1.0" encoding="UTF-8"?>
<!DOCTYPE svg PUBLIC "-//W3C//DTD SVG 1.1//EN" "http://www.w3.org/Graphics/SVG/1.1/DTD/svg11.dtd">
<svg xmlns="http://www.w3.org/2000/svg" version="1.1" viewBox="0 0 73 73" stroke="none">
	<rect width="100%" height="100%" fill="#ffffff"/>
	<path d="M20,20h7v1h-7z M29,20h2v1h-2z M32,20h1v1h-1z M34,20h1v1h-1z M36,20h1v3h-1z M37,20h1v1h-1z M39,20h1v1h-1z M43,20h2v1h-2z M46,20h7v1h-7z M20,21h1v6h-1z M26,21h1v6h-1z M30,21h1v4h-1z M35,21h1v4h-1z M38,21h1v1h-1z M41,21h1v2h-1z M44,21h1v3h-1z M46,21h1v6h-1z M52,21h1v6h-1z M22,22h3v3h-3z M28,22h1v6h-1z M31,22h1v1h-1z M34,22h1v1h-1z M39,22h1v1h-1z M42,22h1v2h-1z M48,22h3v3h-3z M29,23h1v3h-1z M37,23h1v1h-1z M31,24h2v1h-2z M34,24h1v1h-1z M36,24h1v1h-1z M39,24h2v1h-2z M43,24h1v1h-1z M31,25h1v1h-1z M33,25h1v1h-1z M37,25h1v1h-1z M40,25h1v4h-1z M42,25h1v2h-1z M44,25h1v2h-1z M21,26h5v1h-5z M30,26h1v2h-1z M32,26h1v3h-1z M34,26h1v1h-1z M36,26h1v2h-1z M38,26h1v3h-1z M47,26h5v1h-5z M29,27h1v2h-1z M31,27h1v1h-1z M39,27h1v1h-1z M41,27h1v1h-1z M43,27h1v3h-1z M20,28h1v1h-1z M22,28h2v3h-2z M24,28h3v1h-3z M33,28h1v4h-1z M37,28h1v1h-1z M46,28h5v1h-5z M31,29h1v2h-1z M36,29h1v1h-1z M39,29h1v1h-1z M41,29h2v1h-2z M44,29h4v1h-4z M49,29h2v1h-2z M52,29h1v1h-1z M24,30h1v1h-1z M26,30h5v1h-5z M34,30h2v1h-2z M37,30h2v1h-2z M40,30h1v1h-1z M45,30h1v3h-1z M46,30h1v1h-1z M48,30h1v3h-1z M50,30h2v1h-2z M20,31h2v1h-2z M23,31h1v1h-1z M27,31h1v3h-1z M30,31h1v1h-1z M32,31h1v1h-1z M36,31h1v2h-1z M41,31h2v3h-2z M43,31h2v1h-2z M49,31h1v5h-1z M50,31h1v1h-1z M24,32h1v4h-1z M25,32h2v1h-2z M28,32h1v1h-1z M34,32h1v1h-1z M37,32h1v1h-1z M40,32h1v2h-1z M44,32h1v1h-1z M47,32h1v1h-1z M51,32h1v3h-1z M22,33h2v2h-2z M29,33h1v1h-1z M31,33h2v1h-2z M35,33h1v4h-1z M39,33h1v1h-1z M43,33h1v1h-1z M46,33h1v1h-1z M52,33h1v1h-1z M21,34h1v2h-1z M25,34h2v1h-2z M28,34h1v4h-1z M32,34h1v2h-1z M36,34h1v1h-1z M41,34h1v2h-1z M50,34h1v2h-1z M20,35h1v2h-1z M25,35h1v1h-1z M30,35h1v7h-1z M34,35h1v2h-1z M38,35h1v3h-1z M40,35h1v2h-1z M43,35h1v3h-1z M45,35h1v1h-1z M47,35h1v3h-1z M23,36h1v4h-1z M26,36h2v1h-2z M31,36h1v1h-1z M37,36h1v1h-1z M48,36h1v1h-1z M52,36h1v2h-1z M27,37h1v1h-1z M29,37h1v3h-1z M36,37h1v1h-1z M39,37h1v1h-1z M41,37h1v3h-1z M44,37h2v2h-2z M46,37h1v1h-1z M49,37h3v1h-3z M20,38h2v1h-2z M25,38h1v3h-1z M26,38h1v1h-1z M32,38h1v2h-1z M34,38h2v1h-2z M40,38h1v7h-1z M42,38h1v1h-1z M48,38h1v3h-1z M50,38h2v1h-2z M21,39h1v1h-1z M24,39h1v1h-1z M28,39h1v1h-1z M31,39h1v1h-1z M33,39h1v4h-1z M36,39h1v1h-1z M38,39h1v1h-1z M43,39h1v3h-1z M45,39h1v1h-1z M49,39h1v3h-1z M50,39h1v1h-1z M26,40h2v1h-2z M34,40h1v2h-1z M37,40h1v3h-1z M42,40h1v1h-1z M44,40h1v1h-1z M47,40h1v1h-1z M52,40h1v2h-1z M20,41h1v4h-1z M21,41h1v1h-1z M24,41h1v1h-1z M27,41h1v1h-1z M29,41h1v1h-1z M35,41h2v1h-2z M38,41h1v1h-1z M45,41h1v4h-1z M46,41h1v1h-1z M22,42h1v3h-1z M23,42h1v1h-1z M25,42h2v1h-2z M42,42h1v1h-1z M48,42h1v1h-1z M50,42h2v2h-2z M24,43h2v1h-2z M27,43h1v2h-1z M30,43h2v1h-2z M36,43h1v1h-1z M41,43h1v1h-1z M43,43h2v1h-2z M46,43h1v2h-1z M23,44h2v1h-2z M26,44h1v1h-1z M29,44h1v2h-1z M32,44h1v1h-1z M34,44h1v1h-1z M37,44h1v1h-1z M44,44h1v5h-1z M47,44h3v1h-3z M52,44h1v2h-1z M28,45h1v1h-1z M36,45h1v3h-1z M39,45h1v1h-1z M42,45h1v1h-1z M48,45h1v5h-1z M50,45h1v3h-1z M20,46h7v1h-7z M34,46h2v1h-2z M41,46h1v2h-1z M43,46h1v1h-1z M46,46h1v1h-1z M51,46h1v1h-1z M20,47h1v6h-1z M26,47h1v6h-1z M28,47h1v4h-1z M30,47h1v3h-1z M31,47h1v1h-1z M33,47h1v1h-1z M35,47h1v6h-1z M39,47h1v3h-1z M42,47h1v2h-1z M52,47h1v3h-1z M22,48h3v3h-3z M29,48h1v2h-1z M37,48h1v1h-1z M45,48h3v1h-3z M49,48h1v4h-1z M51,48h1v2h-1z M34,49h1v2h-1z M38,49h1v3h-1z M40,49h1v4h-1z M41,49h1v1h-1z M47,49h1v4h-1z M31,50h2v1h-2z M37,50h1v1h-1z M44,50h3v2h-3z M36,51h1v2h-1z M41,51h1v1h-1z M43,51h1v2h-1z M48,51h1v2h-1z M50,51h1v1h-1z M21,52h5v1h-5z M28,52h1v1h-1z M30,52h2v1h-2z M37,52h1v1h-1z M39,52h1v1h-1z M44,52h2v1h-2z M51,52h1v1h-1z" fill="#000000"/>
</svg>
